# xmcd
#
# Track frame offsets:
#	150
#	14434
#	30112
#	54924
#	74807
#	91495
#	107585
#	133099
#	150049
#	164117
#	181277
#	194518
#
# Disc length: 2830 seconds
#
# Revision: 0
# Processed by: cddbd v1.5.2PL0 Copyright (c) Steve Scherf et al.
# Submitted via: EasyCDDAExtractor 2010.4.0.0
#
DISCID=9a0b0c0c
DTITLE=Adam Harvey
DYEAR=1900
DGENRE=Country
TTITLE0=Bad Luck With Women
TTITLE1=Cheryl Moana Marie
TTITLE2=Heartbreak Side Of Town
TTITLE3=He'll Have To Go
TTITLE4=It's Now Or Never
TTITLE5=I May Never Get To Heaven
TTITLE6=Old Dogs And Children And Water
TTITLE7=Phantom 309
TTITLE8=Sick And tired Of You
TTITLE9=Tamworth Blues
TTITLE10=Tight-Fittin' Jeans
TTITLE11=You Gave Me  A Mountain
EXTD=
EXTT0=
EXTT1=
EXTT2=
EXTT3=
EXTT4=
EXTT5=
EXTT6=
EXTT7=
EXTT8=
EXTT9=
EXTT10=
EXTT11=
PLAYORDER=
